<?xml version="1.0" standalone="no"?>
<!DOCTYPE svg PUBLIC "-//W3C//DTD SVG 20010904//EN"
 "http://www.w3.org/TR/2001/REC-SVG-20010904/DTD/svg10.dtd">
<svg version="1.0" xmlns="http://www.w3.org/2000/svg"
 width="512.000000pt" height="512.000000pt" viewBox="0 0 512.000000 512.000000"
 preserveAspectRatio="xMidYMid meet">

<g transform="translate(0.000000,512.000000) scale(0.100000,-0.100000)"
fill="#00cfff" stroke="none">
<path d="M3095 5106 c-118 -52 -124 -224 -11 -289 16 -9 180 -13 656 -17 630
-5 635 -5 676 -27 48 -25 101 -83 120 -129 21 -50 21 -4118 0 -4168 -19 -46
-72 -104 -120 -129 -41 -22 -46 -22 -678 -27 -623 -5 -637 -5 -664 -26 -53
-39 -69 -71 -69 -134 0 -63 16 -95 69 -134 27 -21 37 -21 679 -21 645 0 653 0
722 22 136 43 264 149 330 274 70 133 65 -38 65 2259 0 2298 5 2125 -65 2260
-65 122 -189 227 -324 273 -65 22 -73 22 -711 24 -523 2 -651 0 -675 -11z"/>
<path d="M2485 3666 c-83 -37 -121 -148 -76 -222 10 -17 188 -186 395 -375
l376 -344 -1413 -5 -1412 -5 -36 -23 c-50 -30 -72 -81 -67 -147 5 -57 27 -93
73 -122 29 -17 95 -18 1442 -23 l1413 -5 -376 -344 c-207 -189 -385 -358 -395
-375 -26 -40 -22 -124 7 -163 50 -67 127 -89 196 -56 30 15 898 799 1080 975
86 84 86 172 0 255 -187 182 -1050 961 -1080 975 -44 21 -86 22 -127 4z"/>
</g>
</svg>
